<svg width="61" height="60" viewBox="0 0 61 60" fill="none" xmlns="http://www.w3.org/2000/svg">
<path d="M40.3477 18.6875C39.1758 18.7363 33.3164 19.127 29.6543 21.0801C29.459 21.1777 29.1172 21.1777 28.9219 21.0801C25.2598 19.127 19.4004 18.7363 18.2285 18.6875C16.5684 18.6875 15.25 20.0059 15.25 21.6172V36.0703C15.25 37.6328 16.4707 38.8535 18.0332 38.9512C19.7422 39.0488 23.9902 39.3418 26.9199 40.416C27.2129 40.5137 27.457 40.5625 27.7012 40.5625H30.8262C31.1191 40.5625 31.3633 40.5137 31.6562 40.416C34.5859 39.3418 38.834 39.0488 40.543 38.9512C42.1055 38.8535 43.3262 37.6328 43.3262 36.0703V21.6172C43.375 20.0059 42.0078 18.6875 40.3477 18.6875ZM28.5312 38.2676C28.5312 38.707 28.1406 39.0488 27.75 39.0488C27.6523 39.0488 27.6035 39 27.5059 39C24.4297 37.8281 20.2305 37.4863 18.1309 37.3887C17.3984 37.3398 16.8125 36.8027 16.8125 36.0703V21.6172C16.8125 20.8848 17.4473 20.2988 18.2285 20.2988C19.1562 20.2988 24.1855 20.6406 27.6035 22.1543C28.1406 22.3984 28.4824 22.9355 28.4824 23.5215L28.5312 28.4043V38.2676ZM41.8125 36.0703C41.8125 36.8027 41.1777 37.3398 40.4453 37.3887C38.3457 37.4863 34.1465 37.8281 31.0703 39C30.9727 39 30.9238 39.0488 30.8262 39.0488C30.4355 39.0488 30.0449 38.707 30.0449 38.2676V28.4043L30.0938 23.5215C30.0938 22.9355 30.4355 22.3984 30.9727 22.1543C34.3906 20.6406 39.4199 20.2988 40.3477 20.2988C41.1289 20.2988 41.7637 20.8848 41.7637 21.6172V36.0703H41.8125Z" fill="#18BA51"/>
</svg>
